<?xml version="1.0" encoding="utf-8"?>
<!-- Generator: Adobe Illustrator 22.1.0, SVG Export Plug-In . SVG Version: 6.00 Build 0)  -->
<svg version="1.1" id="Layer_1" xmlns="http://www.w3.org/2000/svg" xmlns:xlink="http://www.w3.org/1999/xlink" x="0px" y="0px"
	 viewBox="0 0 35 35" style="enable-background:new 0 0 35 35;" xml:space="preserve">
<style type="text/css">
	.st0{fill:#F1F0F0;}
</style>
<path class="st0" d="M34.1,16.8c-0.4-6.2-3.4-10.9-8.8-14c-2-1.1-4.2-1.7-6.5-1.9c-0.1,0-0.2,0-0.2-0.1h-1.9C15.9,1,15.3,1,14.6,1.1
	C9.4,2.1,5.4,5,2.9,9.7c-1.1,2-1.8,4.2-1.9,6.6c0,0.1,0,0.2-0.1,0.3v1.9C1,19.1,1,19.8,1.2,20.4c1,5.3,3.9,9.2,8.6,11.8
	c2.6,1.4,5.5,2.1,8.5,1.9c6.2-0.4,10.9-3.3,14-8.8C33.6,22.7,34.3,19.8,34.1,16.8 M12.6,26h-4V13.8h4V26z M10.6,12.2
	c-1.3,0-2.2-0.9-2.2-2.1c0-1.2,1-2.1,2.3-2.1c1.3,0,2.2,0.9,2.2,2.1C12.9,11.3,11.9,12.2,10.6,12.2 M27.2,26h-4v-0.4c0-2,0-4,0-6
	c0-0.5-0.1-1-0.2-1.5c-0.4-1.6-2.3-1.7-3.2-0.9c-0.5,0.4-0.8,1-0.8,1.6c0,2.2,0,4.5,0,6.7c0,0.1,0,0.3,0,0.4h-4V13.8h4v1.6
	c0.3-0.4,0.6-0.7,0.9-1c2.4-2,6.1-0.8,7,2.2c0.2,0.8,0.3,1.6,0.3,2.4c0,2.2,0,4.5,0,6.7C27.3,25.8,27.2,25.9,27.2,26"/>
</svg>
