<?xml version="1.0" encoding="utf-8"?>
<!-- Generator: Adobe Illustrator 22.1.0, SVG Export Plug-In . SVG Version: 6.00 Build 0)  -->
<svg version="1.1" id="Layer_1" xmlns="http://www.w3.org/2000/svg" xmlns:xlink="http://www.w3.org/1999/xlink" x="0px" y="0px"
	 viewBox="0 0 108.5 24.6" style="enable-background:new 0 0 108.5 24.6;" xml:space="preserve">
<style type="text/css">
	.st0{fill:#232323;}
	.st1{clip-path:url(#SVGID_2_);fill:url(#SVGID_3_);}
</style>
<g>
	<path class="st0" d="M50.9,8.4c0,0.8,0.1,1.7,0,2.6c-0.2,1.4-1,2.2-2.4,2.3c-0.7,0.1-1.4,0-2.1-0.3c-1-0.5-1.5-1.3-1.5-2.4
		c0-1.7,0-3.3,0-5c0-0.2,0.1-0.2,0.2-0.2c0.3,0,0.6,0,0.8,0c0.2,0,0.3,0.1,0.3,0.3c0,1.6,0,3.1,0,4.7c0,0.2,0,0.4,0,0.6
		c0.2,0.9,0.9,1.4,1.9,1.3c0.9-0.1,1.4-0.7,1.5-1.6c0-1.2,0-2.5,0-3.7c0-0.4,0-0.9,0-1.3c0-0.2,0-0.2,0.2-0.2c0.3,0,0.5,0,0.8,0
		c0.2,0,0.2,0.1,0.2,0.2C50.9,6.5,50.9,7.4,50.9,8.4"/>
	<path class="st0" d="M53,9.3c0-1.2,0-2.4,0-3.6c0-0.2,0.1-0.3,0.3-0.3c1.3,0,2.6,0,3.9,0c0.2,0,0.3,0.1,0.3,0.3
		c0,0.3,0.1,0.6,0,0.8c-0.2,0.2-0.5,0-0.8,0c-0.7,0-1.4,0-2.1,0c-0.2,0-0.3,0.1-0.2,0.3c0,0.5,0,1.1,0,1.6c0,0.2,0.1,0.2,0.2,0.2
		c0.7,0,1.5,0,2.2,0C57,8.6,57,8.6,57,8.8c0,0.8,0,0.8-0.8,0.8c-0.6,0-1.1,0-1.7,0c-0.2,0-0.3,0-0.3,0.2c0,0.7,0,1.4,0,2
		c0,0.2,0.1,0.3,0.3,0.3c0.9,0,1.7,0,2.6,0c0.2,0,0.3,0.1,0.3,0.3c0,0.3,0.1,0.6-0.1,0.8c-0.2,0.2-0.5,0-0.8,0c-1.1,0-2.2,0-3.3,0
		c-0.3,0-0.3,0-0.3-0.3C53,11.7,53,10.5,53,9.3"/>
	<path class="st0" d="M94,6.8c-0.4-0.2-0.8-0.3-1.2-0.3c-0.4,0-0.8-0.1-1.2,0c-0.4,0.1-0.6,0.4-0.7,0.8c-0.1,0.4,0.1,0.8,0.5,1
		c0.5,0.3,1,0.5,1.5,0.7c0.6,0.3,1.2,0.7,1.4,1.4c0.4,1.5-0.5,2.8-2.1,2.9c-0.8,0.1-1.7,0-2.5-0.3c-0.2-0.1-0.3-0.2-0.2-0.3
		c0-0.3,0-0.6,0-0.9c0.3,0,0.5,0.2,0.8,0.3c0.6,0.2,1.2,0.3,1.8,0.1c0.4-0.1,0.7-0.4,0.8-0.8c0.1-0.5-0.1-0.9-0.5-1.1
		c-0.5-0.3-1-0.5-1.5-0.7c-0.6-0.3-1.1-0.7-1.3-1.3c-0.5-1.5,0.4-2.7,2-2.9c0.7-0.1,1.4,0,2.1,0.2C93.9,5.6,94,5.7,94,5.9
		C94,6.2,94,6.5,94,6.8"/>
	<path class="st0" d="M99.1,11.8c0.8,0.3,1.5,0.5,2.3,0.5c0.6,0,1-0.3,1.1-0.7c0.2-0.5,0-0.9-0.4-1.2c-0.3-0.2-0.7-0.4-1.1-0.6
		c-0.2-0.1-0.4-0.2-0.5-0.3c-1-0.5-1.4-1.4-1.2-2.5c0.2-0.9,1-1.5,2-1.6c0.7-0.1,1.4,0,2.1,0.2c0.1,0,0.2,0.1,0.2,0.3
		c0,0.3,0.1,0.7,0,0.8c-0.2,0.2-0.5-0.1-0.8-0.2c-0.5-0.1-1-0.2-1.6,0c-0.4,0.1-0.7,0.3-0.7,0.8c-0.1,0.4,0.1,0.8,0.5,1
		c0.4,0.2,0.9,0.4,1.3,0.6c0.2,0.1,0.3,0.2,0.5,0.2c0.9,0.5,1.3,1.3,1.2,2.3c-0.1,0.9-0.8,1.6-1.8,1.8c-1,0.2-1.9,0.1-2.9-0.2
		c-0.1,0-0.2-0.1-0.2-0.3C99.1,12.4,99.1,12.1,99.1,11.8"/>
	<path class="st0" d="M67.7,9.9c0-1,0-2,0-3.1c0-0.2,0-0.3-0.3-0.3c-0.5,0-1.1,0-1.7,0c-0.2,0-0.2,0-0.2-0.2c0-0.2,0-0.5,0-0.7
		c0-0.2,0.1-0.2,0.2-0.2c1.7,0,3.5,0,5.2,0c0.2,0,0.2,0,0.2,0.2c0,0.2,0,0.4,0,0.5c0,0.3-0.1,0.3-0.3,0.3c-0.5,0-1,0-1.6,0
		C69,6.5,69,6.6,69,6.9c0,2,0,4.1,0,6.1c0,0.2-0.1,0.3-0.3,0.3c-0.2,0-0.5,0-0.7,0c-0.2,0-0.3-0.1-0.3-0.3
		C67.7,11.9,67.7,10.9,67.7,9.9L67.7,9.9z"/>
	<path class="st0" d="M96,9.3c0-1.2,0-2.4,0-3.6c0-0.2,0.1-0.3,0.3-0.3c0.3,0,0.6,0,0.8,0c0.1,0,0.2,0,0.2,0.2c0,2.5,0,5,0,7.4
		c0,0.2,0,0.2-0.2,0.2c-0.3,0-0.6,0-0.9,0c-0.2,0-0.2-0.1-0.2-0.2C96,11.8,96,10.6,96,9.3"/>
	<path class="st0" d="M98.9,3.1c-0.5,0.5-1,1.1-1.5,1.6c-0.2,0.2-1,0.2-1.1,0c-0.1-0.1,0.7-1.1,0.9-1.5c0.1-0.1,0.2-0.2,0.3-0.2
		C98,3.1,98.4,3.1,98.9,3.1"/>
	<path class="st0" d="M78.8,8.7c-0.1-0.9-0.4-1.7-1-2.4c-0.9-0.9-2-1.1-3.2-0.9c-1.3,0.2-2.1,0.9-2.6,2.2c-0.4,1.1-0.4,2.2-0.1,3.3
		c0.4,1.4,1.3,2.3,2.7,2.5c1.5,0.2,2.8-0.2,3.6-1.5c0.5-0.7,0.6-1.6,0.6-2.5C78.8,9.1,78.8,8.9,78.8,8.7 M77.1,11.1
		c-0.4,0.8-1,1.2-1.9,1.2c-0.9,0-1.5-0.4-1.8-1.2c-0.4-1.1-0.4-2.3,0-3.4c0.3-0.9,1-1.3,2-1.2c0.8,0,1.5,0.5,1.8,1.3
		c0.2,0.5,0.3,1.1,0.3,1.5C77.4,9.9,77.4,10.5,77.1,11.1"/>
	<path class="st0" d="M65.1,13c0-0.2,0-0.4,0-0.6c0-0.1,0-0.2-0.2-0.2c-0.3,0-0.5-0.1-0.7-0.3c-0.5-0.7-0.9-1.4-1.4-2.1
		c-0.1-0.1,0-0.2,0.1-0.2c0.2-0.1,0.5-0.2,0.7-0.4c0.7-0.6,1-1.4,0.7-2.4c-0.2-0.8-0.9-1.4-1.8-1.5c-1-0.1-2,0-3.1,0
		c-0.2,0-0.2,0.1-0.2,0.3c0,1.2,0,2.4,0,3.6c0,1.2,0,2.4,0,3.7c0,0.2,0,0.3,0.3,0.3c0.3,0,0.5,0,0.8,0c0.2,0,0.3-0.1,0.3-0.3
		c0-0.9,0-1.7,0-2.6c0-0.5,0-0.5,0.5-0.5c0.3,0,0.4,0,0.6,0.3c0.5,0.8,1,1.5,1.5,2.3c0.4,0.6,1,0.9,1.7,0.8
		C65,13.3,65.2,13.3,65.1,13 M61.9,8.9c-0.4,0-0.8,0-1.2,0c-0.2,0-0.2-0.1-0.2-0.2c0-0.3,0-0.7,0-1c0-0.3,0-0.7,0-1
		c0-0.2,0-0.2,0.2-0.2c0.4,0,0.8,0,1.2,0C62.6,6.5,63,7,63,7.7C63,8.4,62.6,8.9,61.9,8.9"/>
	<path class="st0" d="M88.6,12.9c-0.8-2.3-1.6-4.5-2.4-6.8c-0.2-0.7-0.2-0.7-1-0.7c-0.1,0-0.3,0-0.4,0c-0.3,0-0.4,0.1-0.5,0.3
		c-0.5,1.3-1,2.6-1.4,3.9c-0.4,1.1-0.8,2.2-1.2,3.3c-0.1,0.2-0.1,0.2,0.2,0.2c0.3,0,0.6,0,0.9,0c0.2,0,0.2-0.1,0.3-0.2
		c0.2-0.5,0.3-1,0.5-1.4c0-0.1,0.1-0.2,0.3-0.2c0.9,0,1.9,0,2.8,0c0.2,0,0.2,0.1,0.3,0.2c0.1,0.5,0.3,0.9,0.5,1.4
		c0,0.2,0.1,0.2,0.3,0.2c0.3,0,0.6,0,0.9,0C88.7,13.3,88.7,13.3,88.6,12.9 M86.1,10.4c-0.7,0-1.4,0-2.1,0c-0.1,0-0.2,0-0.1-0.1
		c0.4-1.2,0.8-2.4,1.2-3.5c0,0,0,0,0,0c0.4,1.2,0.8,2.3,1.1,3.5C86.3,10.3,86.3,10.4,86.1,10.4"/>
	<path class="st0" d="M43.5,7.6c-0.1-1.2-0.9-2.1-2.1-2.1c-0.9-0.1-1.8,0-2.7,0c-0.4,0-0.4,0-0.4,0.4v3.5c0,1.2,0,2.4,0,3.7
		c0,0.2,0.1,0.3,0.3,0.3c0.3,0,0.5,0,0.8,0c0.2,0,0.3,0,0.3-0.3c0-0.6,0-1.3,0-1.9c0-0.2-0.1-0.6,0-0.7c0.1-0.2,0.5,0,0.7-0.1
		c0.4,0,0.9,0,1.3-0.1C42.9,9.9,43.5,9,43.5,7.6 M40.7,9.3c-0.3,0-0.6,0-0.9,0c-0.2,0-0.2-0.1-0.2-0.2c0-0.4,0-0.8,0-1.2
		c0-0.4,0-0.8,0-1.2c0-0.1,0-0.2,0.1-0.2c0.4,0,0.9,0,1.3,0c0.7,0.1,1.1,0.6,1.1,1.4C42.1,8.8,41.6,9.3,40.7,9.3"/>
	<g>
		<g>
			<path class="st0" d="M38.3,21.5V16h0.4v5.4H38.3z"/>
			<path class="st0" d="M46,21.5h-0.4l-3.2-4.8h0c0,0.6,0,1,0,1.3v3.5H42V16h0.4l3.2,4.8h0c0-0.4,0-0.9,0-1.3V16H46V21.5z"/>
			<path class="st0" d="M52.6,16H53l-2,5.4h-0.3l-2-5.4H49l1.4,3.7c0.2,0.6,0.3,1,0.4,1.3c0-0.2,0.1-0.5,0.3-0.9L52.6,16z"/>
			<path class="st0" d="M58.6,21.5h-3V16h3v0.4H56v2.1h2.5v0.4H56v2.3h2.6V21.5z"/>
			<path class="st0" d="M64.6,20.1c0,0.5-0.2,0.8-0.5,1.1c-0.3,0.3-0.8,0.4-1.3,0.4c-0.7,0-1.2-0.1-1.5-0.2v-0.4
				c0.4,0.2,0.9,0.2,1.5,0.2c0.4,0,0.8-0.1,1.1-0.3c0.3-0.2,0.4-0.5,0.4-0.8c0-0.2,0-0.4-0.1-0.5c-0.1-0.1-0.2-0.3-0.4-0.4
				s-0.5-0.2-0.9-0.4c-0.6-0.2-0.9-0.4-1.2-0.6s-0.3-0.5-0.3-0.9c0-0.4,0.2-0.7,0.5-1c0.3-0.3,0.7-0.4,1.2-0.4c0.5,0,1,0.1,1.4,0.3
				l-0.1,0.3c-0.5-0.2-0.9-0.3-1.3-0.3c-0.4,0-0.7,0.1-1,0.3c-0.2,0.2-0.4,0.4-0.4,0.8c0,0.2,0,0.4,0.1,0.5c0.1,0.1,0.2,0.2,0.4,0.3
				c0.2,0.1,0.5,0.2,0.9,0.4c0.4,0.1,0.7,0.3,1,0.4c0.2,0.1,0.4,0.3,0.5,0.5C64.6,19.6,64.6,19.8,64.6,20.1z"/>
			<path class="st0" d="M69,21.5h-0.4v-5.1h-1.8V16h3.9v0.4H69V21.5z"/>
			<path class="st0" d="M75.8,21.5l-2-5h0c0,0.3,0,0.6,0,0.9v4.1h-0.4V16H74l1.9,4.8h0l1.9-4.8h0.6v5.4h-0.4v-4.1c0-0.3,0-0.6,0-0.9
				h0l-2,5H75.8z"/>
			<path class="st0" d="M84.8,21.5h-3V16h3v0.4h-2.6v2.1h2.5v0.4h-2.5v2.3h2.6V21.5z"/>
			<path class="st0" d="M91.9,21.5h-0.4l-3.2-4.8h0c0,0.6,0,1,0,1.3v3.5h-0.4V16h0.4l3.2,4.8h0c0-0.4,0-0.9,0-1.3V16h0.4V21.5z"/>
			<path class="st0" d="M96.6,21.5h-0.4v-5.1h-1.8V16h3.9v0.4h-1.8V21.5z"/>
			<path class="st0" d="M104.1,20.1c0,0.5-0.2,0.8-0.5,1.1c-0.3,0.3-0.8,0.4-1.3,0.4c-0.7,0-1.2-0.1-1.5-0.2v-0.4
				c0.4,0.2,0.9,0.2,1.5,0.2c0.4,0,0.8-0.1,1.1-0.3c0.3-0.2,0.4-0.5,0.4-0.8c0-0.2,0-0.4-0.1-0.5s-0.2-0.3-0.4-0.4s-0.5-0.2-0.9-0.4
				c-0.6-0.2-0.9-0.4-1.2-0.6s-0.3-0.5-0.3-0.9c0-0.4,0.2-0.7,0.5-1c0.3-0.3,0.7-0.4,1.2-0.4c0.5,0,1,0.1,1.4,0.3l-0.1,0.3
				c-0.5-0.2-0.9-0.3-1.3-0.3c-0.4,0-0.7,0.1-1,0.3c-0.2,0.2-0.4,0.4-0.4,0.8c0,0.2,0,0.4,0.1,0.5c0.1,0.1,0.2,0.2,0.4,0.3
				c0.2,0.1,0.5,0.2,0.9,0.4c0.4,0.1,0.7,0.3,1,0.4c0.2,0.1,0.4,0.3,0.5,0.5C104,19.6,104.1,19.8,104.1,20.1z"/>
		</g>
		<g>
			<defs>
				<path id="SVGID_1_" d="M22.6,17.9c-4.9-1.1-8.2-2.4-10.3-3.3c0,0-1.6-0.8-1.6-0.8c-1-0.6-1.3-1.1-1.3-1.1
					c-0.5-0.8-0.3-1.8,0.7-2.2c4.8-1.9,13.2-1.9,16.6-1c1.7,0.5,2.8,1.3,1.9,2.6c-0.9,1.3-3.8,4.5-5.2,5.6c-0.1,0.1-0.3,0.2-0.5,0.2
					C22.8,17.9,22.7,17.9,22.6,17.9 M5.7,9.2c-1.3,0.5-1.6,1.9-0.9,3.1c0,0,0.4,0.7,1.8,1.5c0.1,0.1,2.3,1.2,2.3,1.2
					c2.9,1.3,7.7,3.2,14.5,4.7c0.6,0.1,0.9,0,1.1-0.2c1.9-1.5,6.1-6.2,7.3-7.9c1.2-1.8-0.4-3-2.7-3.7c-2-0.6-5.1-0.9-8.6-0.9
					C15.4,6.9,9.7,7.6,5.7,9.2"/>
			</defs>
			<clipPath id="SVGID_2_">
				<use xlink:href="#SVGID_1_"  style="overflow:visible;"/>
			</clipPath>
			
				<linearGradient id="SVGID_3_" gradientUnits="userSpaceOnUse" x1="-771.0121" y1="3634.7312" x2="-770.7023" y2="3634.7312" gradientTransform="matrix(89.7583 0 0 -89.7583 69209.2031 326260.75)">
				<stop  offset="0" style="stop-color:#D63127"/>
				<stop  offset="1" style="stop-color:#9E1C20"/>
			</linearGradient>
			<rect x="4.1" y="6.9" class="st1" width="28.9" height="12.8"/>
		</g>
	</g>
</g>
</svg>
