<?xml version="1.0" encoding="utf-8"?>
<!-- Generator: Adobe Illustrator 22.1.0, SVG Export Plug-In . SVG Version: 6.00 Build 0)  -->
<svg version="1.1" id="Layer_1" xmlns="http://www.w3.org/2000/svg" xmlns:xlink="http://www.w3.org/1999/xlink" x="0px" y="0px"
	 viewBox="0 0 327 93.7" style="enable-background:new 0 0 327 93.7;" xml:space="preserve">
<style type="text/css">
	.st0{fill:#EBEBEB;}
	.st1{clip-path:url(#SVGID_2_);fill:url(#SVGID_3_);}
</style>
<g>
	<path class="st0" d="M154.3,33.8c-0.1,2,0.2,4.4-0.1,6.9c-0.5,3.6-2.7,5.8-6.3,6.2c-1.9,0.2-3.8,0.1-5.6-0.7
		c-2.7-1.3-3.9-3.5-3.9-6.4c-0.1-4.4,0-8.8,0-13.2c0-0.5,0.2-0.6,0.6-0.6c0.7,0,1.5,0.1,2.2,0c0.6-0.1,0.7,0.2,0.7,0.7
		c0,4.1,0,8.3,0,12.4c0,0.5,0,1,0.1,1.5c0.5,2.5,2.3,3.6,5.1,3.4c2.3-0.2,3.8-1.8,3.9-4.2c0.1-3.2,0-6.5,0-9.8c0-1.1,0-2.3,0-3.4
		c0-0.4,0.1-0.6,0.6-0.6c0.7,0,1.4,0,2.1,0c0.5,0,0.6,0.2,0.6,0.6C154.3,28.9,154.3,31.1,154.3,33.8"/>
	<path class="st0" d="M159.7,36.4c0-3.2,0-6.4,0-9.6c0-0.6,0.2-0.8,0.8-0.7c3.4,0,6.9,0,10.3,0c0.6,0,0.8,0.1,0.8,0.8
		c-0.1,0.7,0.3,1.6-0.1,2c-0.4,0.4-1.3,0.1-2,0.1c-1.9,0-3.7,0-5.6,0c-0.5,0-0.7,0.2-0.7,0.7c0,1.4,0,2.8,0,4.2
		c0,0.5,0.2,0.6,0.6,0.6c1.9,0,3.9,0,5.8,0c0.6,0,0.7,0.2,0.7,0.7c0,2,0,2-2,2c-1.5,0-3,0-4.4,0c-0.5,0-0.7,0.1-0.7,0.7
		c0,1.8,0,3.6,0,5.4c0,0.6,0.2,0.7,0.7,0.7c2.3,0,4.5,0,6.8,0c0.6,0,0.9,0.2,0.8,0.8c-0.1,0.7,0.3,1.6-0.1,2c-0.4,0.4-1.3,0.1-2,0.1
		c-2.9,0-5.9,0-8.8,0c-0.7,0-0.9-0.1-0.9-0.9C159.8,42.7,159.7,39.6,159.7,36.4"/>
	<path class="st0" d="M268.1,29.7c-1.1-0.4-2.2-0.8-3.3-0.9c-1-0.1-2.1-0.2-3.1,0.1c-1,0.3-1.7,0.9-1.9,2c-0.2,1.1,0.2,2,1.2,2.5
		c1.3,0.7,2.7,1.3,4.1,1.9c1.7,0.8,3.2,1.9,3.7,3.8c1,3.9-1.3,7.3-5.4,7.7c-2.2,0.2-4.4,0-6.6-0.8c-0.5-0.2-0.7-0.4-0.6-0.9
		c0.1-0.8,0-1.5,0.1-2.3c0.7,0,1.4,0.5,2.1,0.7c1.6,0.5,3.2,0.7,4.8,0.3c1.2-0.3,2-1,2.2-2.2c0.2-1.3-0.3-2.3-1.4-2.9
		c-1.2-0.7-2.6-1.2-3.9-1.8c-1.6-0.8-2.9-1.8-3.5-3.5c-1.2-3.9,1-7.2,5.2-7.6c1.9-0.2,3.7,0.1,5.6,0.6c0.5,0.1,0.6,0.3,0.6,0.8
		C268,28.1,268.1,28.8,268.1,29.7"/>
	<path class="st0" d="M281.7,42.8c2,0.9,3.9,1.4,6,1.3c1.5-0.1,2.6-0.8,3-2c0.4-1.3,0-2.5-1.1-3.3c-0.9-0.6-2-1-3-1.5
		c-0.5-0.2-1-0.4-1.4-0.7c-2.7-1.4-3.8-3.7-3.2-6.7c0.5-2.4,2.5-3.9,5.4-4.2c1.9-0.2,3.7,0.1,5.6,0.6c0.4,0.1,0.6,0.2,0.6,0.7
		c0,0.8,0.3,1.8-0.1,2.2c-0.4,0.5-1.3-0.3-2-0.4c-1.4-0.3-2.8-0.5-4.2-0.1c-1,0.3-1.7,0.9-1.9,2c-0.2,1.1,0.2,2.1,1.2,2.6
		c1.2,0.6,2.4,1.1,3.6,1.7c0.4,0.2,0.9,0.4,1.3,0.6c2.5,1.4,3.5,3.4,3.1,6.2c-0.3,2.4-2.1,4.2-4.7,4.8c-2.6,0.5-5.1,0.2-7.6-0.6
		c-0.3-0.1-0.5-0.3-0.5-0.7C281.7,44.6,281.7,43.7,281.7,42.8"/>
	<path class="st0" d="M198.5,37.8c0-2.7,0-5.4,0-8.1c0-0.6-0.1-0.8-0.8-0.8c-1.5,0.1-2.9,0-4.4,0c-0.4,0-0.5-0.1-0.5-0.5
		c0-0.6,0-1.2,0-1.8c0-0.5,0.2-0.5,0.5-0.5c4.6,0,9.2,0,13.8,0c0.5,0,0.7,0.1,0.6,0.6c0,0.5-0.1,1,0,1.4c0.1,0.8-0.2,0.9-0.9,0.8
		c-1.4,0-2.8,0-4.1,0c-0.8,0-0.9,0.2-0.9,0.9c0,5.4,0,10.7,0,16.1c0,0.7-0.2,0.9-0.8,0.8c-0.6-0.1-1.2-0.1-1.8,0
		c-0.6,0-0.8-0.1-0.8-0.8C198.5,43.3,198.5,40.5,198.5,37.8L198.5,37.8z"/>
	<path class="st0" d="M273.5,36.4c0-3.2,0-6.4,0-9.6c0-0.6,0.1-0.8,0.7-0.7c0.7,0.1,1.5,0,2.2,0c0.4,0,0.6,0.1,0.6,0.5
		c0,6.5,0,13.1,0,19.6c0,0.4-0.1,0.6-0.5,0.5c-0.8,0-1.6,0-2.4,0c-0.5,0-0.6-0.2-0.6-0.6C273.5,42.9,273.5,39.6,273.5,36.4"/>
	<path class="st0" d="M281,19.8c-1.3,1.4-2.7,2.9-4.1,4.3c-0.4,0.4-2.7,0.4-2.9,0c-0.2-0.3,1.8-3,2.4-3.9c0.2-0.3,0.4-0.5,0.8-0.5
		C278.5,19.8,279.8,19.8,281,19.8"/>
	<path class="st0" d="M227.9,34.8c-0.3-2.4-0.9-4.6-2.6-6.3c-2.3-2.4-5.3-3-8.5-2.5c-3.4,0.5-5.7,2.5-6.9,5.7
		c-1.1,2.9-1.1,5.8-0.3,8.7c1,3.6,3.3,6,7.1,6.5c4,0.6,7.5-0.5,9.6-4.1c1.2-2,1.6-4.2,1.6-6.6C228,35.8,228,35.3,227.9,34.8
		 M223.5,40.9c-1,2.1-2.6,3.2-4.9,3.2c-2.3,0-4-1.1-4.9-3.2c-1.1-2.9-1.1-6,0-8.9c0.9-2.3,2.7-3.3,5.2-3.3c2.2,0.1,3.9,1.4,4.7,3.5
		c0.5,1.4,0.7,2.8,0.7,4C224.3,38,224.1,39.5,223.5,40.9"/>
	<path class="st0" d="M191.8,46.2c-0.1-0.5,0-1.1,0-1.6c0-0.4-0.1-0.5-0.5-0.4c-0.8,0.1-1.4-0.2-1.8-0.9c-1.2-1.8-2.5-3.6-3.7-5.4
		c-0.2-0.4-0.1-0.5,0.2-0.6c0.6-0.2,1.2-0.5,1.7-0.9c1.8-1.5,2.5-3.8,1.8-6.2c-0.6-2.2-2.4-3.7-4.9-3.9c-2.7-0.2-5.4,0-8.1-0.1
		c-0.6,0-0.5,0.4-0.5,0.7c0,3.2,0,6.4,0,9.6c0,3.2,0,6.5,0,9.7c0,0.5,0.1,0.7,0.7,0.7c0.7,0,1.4,0,2.1,0c0.6,0,0.7-0.1,0.7-0.7
		c0-2.3,0-4.5,0-6.8c0-1.4,0-1.3,1.4-1.4c0.7,0,1.1,0.1,1.5,0.8c1.3,2.1,2.6,4.1,4,6.1c1.1,1.7,2.6,2.4,4.6,2.2
		C191.5,46.9,191.8,46.8,191.8,46.2 M183.3,35.3c-1.1,0.1-2.2,0-3.2,0c-0.5,0-0.5-0.2-0.5-0.6c0-0.9,0-1.8,0-2.7c0-0.9,0-1.8,0-2.7
		c0-0.4,0.1-0.6,0.6-0.6c1.1,0,2.1,0,3.2,0c1.9,0.1,2.9,1.3,2.9,3.2C186.2,34,185.2,35.2,183.3,35.3"/>
	<path class="st0" d="M253.7,45.8c-2.1-6-4.3-12-6.4-17.9c-0.6-1.8-0.6-1.8-2.6-1.8c-0.4,0-0.8,0.1-1.2,0c-0.7-0.1-1,0.2-1.2,0.8
		c-1.3,3.5-2.6,6.9-3.8,10.4c-1.1,2.9-2.2,5.9-3.3,8.8c-0.2,0.5-0.2,0.7,0.4,0.6c0.8,0,1.6,0,2.4,0c0.4,0,0.6-0.1,0.7-0.5
		c0.4-1.3,0.9-2.5,1.3-3.8c0.1-0.4,0.3-0.5,0.7-0.5c2.5,0,4.9,0,7.4,0c0.4,0,0.7,0.1,0.8,0.6c0.4,1.2,0.8,2.5,1.2,3.7
		c0.1,0.4,0.3,0.6,0.8,0.6c0.8,0,1.5,0,2.3,0C254.1,46.7,254.1,46.7,253.7,45.8 M247.1,39.1c-1.8,0-3.6,0-5.5,0
		c-0.2,0-0.6,0.1-0.4-0.4c1.1-3.1,2.1-6.2,3.2-9.3c0,0,0,0,0.1,0c1,3,2,6.1,3,9.1C247.7,38.9,247.7,39.1,247.1,39.1"/>
	<path class="st0" d="M134.5,31.8c-0.2-3-2.4-5.4-5.4-5.6c-2.4-0.2-4.8-0.1-7.2-0.1c-1,0-1,0-1,1.1v9.3c0,3.2,0,6.4,0,9.7
		c0,0.6,0.2,0.7,0.7,0.7c0.7,0,1.4-0.1,2.1,0c0.6,0,0.8-0.1,0.8-0.7c0-1.7,0-3.3,0-5c0-0.7-0.2-1.5,0.1-1.9c0.4-0.5,1.3-0.1,2-0.1
		c1.1,0,2.3,0.1,3.4-0.2C133,38,134.7,35.4,134.5,31.8 M127.2,36.3c-0.8,0-1.5,0-2.3,0c-0.5,0-0.6-0.2-0.6-0.6c0-1.1,0-2.2,0-3.2
		c0-1.1,0-2.1,0-3.2c0-0.2,0-0.5,0.3-0.5c1.2,0,2.3-0.1,3.5,0.1c1.9,0.3,2.9,1.7,2.8,3.7C130.9,35,129.6,36.3,127.2,36.3"/>
	<g>
		<path class="st0" d="M120.8,68.5V54.1h1v14.4H120.8z"/>
		<path class="st0" d="M141.2,68.5h-1l-8.5-12.8h-0.1c0.1,1.5,0.1,2.7,0.1,3.4v9.3h-1V54.1h1l8.5,12.8h0.1c-0.1-1.2-0.1-2.3-0.1-3.4
			v-9.4h1V68.5z"/>
		<path class="st0" d="M158.6,54.1h1.1l-5.4,14.4h-0.9L148,54.1h1.1l3.6,9.8c0.6,1.5,0.9,2.6,1.1,3.3c0.1-0.5,0.4-1.3,0.8-2.3
			L158.6,54.1z"/>
		<path class="st0" d="M174.4,68.5h-7.9V54.1h7.9V55h-6.9v5.4h6.5v0.9h-6.5v6.2h6.9V68.5z"/>
		<path class="st0" d="M190.4,64.7c0,1.2-0.4,2.2-1.3,2.9c-0.9,0.7-2.1,1.1-3.5,1.1c-1.8,0-3.1-0.2-4-0.6v-1c1,0.4,2.4,0.7,4,0.7
			c1.2,0,2.1-0.3,2.8-0.8c0.7-0.5,1-1.3,1-2.1c0-0.5-0.1-1-0.3-1.4c-0.2-0.4-0.6-0.7-1.1-1c-0.5-0.3-1.3-0.6-2.3-1
			c-1.5-0.5-2.5-1.1-3-1.6s-0.8-1.4-0.8-2.3c0-1.1,0.4-2,1.3-2.6s1.9-1,3.3-1c1.4,0,2.6,0.3,3.8,0.8l-0.4,0.9
			c-1.2-0.5-2.3-0.7-3.4-0.7c-1.1,0-1.9,0.2-2.5,0.7c-0.6,0.5-0.9,1.2-0.9,2c0,0.5,0.1,1,0.3,1.3c0.2,0.3,0.5,0.6,1,0.9
			c0.4,0.3,1.2,0.6,2.3,1c1.1,0.4,2,0.8,2.5,1.1c0.6,0.4,1,0.8,1.2,1.2C190.3,63.5,190.4,64.1,190.4,64.7z"/>
		<path class="st0" d="M202.1,68.5h-1V55h-4.7v-0.9h10.4V55h-4.7V68.5z"/>
		<path class="st0" d="M220.1,68.5l-5.4-13.3h-0.1c0.1,0.8,0.1,1.6,0.1,2.5v10.8h-1V54.1h1.6l5.1,12.7h0.1l5.1-12.7h1.5v14.4h-1
			V57.5c0-0.8,0-1.5,0.1-2.4h-0.1l-5.4,13.3H220.1z"/>
		<path class="st0" d="M243.9,68.5H236V54.1h7.9V55H237v5.4h6.5v0.9H237v6.2h6.9V68.5z"/>
		<path class="st0" d="M262.4,68.5h-1l-8.5-12.8h-0.1c0.1,1.5,0.1,2.7,0.1,3.4v9.3h-1V54.1h1l8.5,12.8h0.1c-0.1-1.2-0.1-2.3-0.1-3.4
			v-9.4h1V68.5z"/>
		<path class="st0" d="M275.1,68.5h-1V55h-4.7v-0.9h10.4V55h-4.7V68.5z"/>
		<path class="st0" d="M294.7,64.7c0,1.2-0.4,2.2-1.3,2.9c-0.9,0.7-2.1,1.1-3.5,1.1c-1.8,0-3.1-0.2-4-0.6v-1c1,0.4,2.4,0.7,4,0.7
			c1.2,0,2.1-0.3,2.8-0.8c0.7-0.5,1-1.3,1-2.1c0-0.5-0.1-1-0.3-1.4c-0.2-0.4-0.6-0.7-1.1-1c-0.5-0.3-1.3-0.6-2.3-1
			c-1.5-0.5-2.5-1.1-3-1.6s-0.8-1.4-0.8-2.3c0-1.1,0.4-2,1.3-2.6c0.8-0.7,1.9-1,3.3-1c1.4,0,2.6,0.3,3.8,0.8l-0.4,0.9
			c-1.2-0.5-2.3-0.7-3.4-0.7c-1.1,0-1.9,0.2-2.5,0.7c-0.6,0.5-0.9,1.2-0.9,2c0,0.5,0.1,1,0.3,1.3c0.2,0.3,0.5,0.6,1,0.9
			c0.4,0.3,1.2,0.6,2.3,1c1.1,0.4,2,0.8,2.5,1.1c0.6,0.4,1,0.8,1.2,1.2S294.7,64.1,294.7,64.7z"/>
	</g>
	<g>
		<defs>
			<path id="SVGID_1_" d="M79.3,59c-12.8-2.8-21.8-6.3-27.2-8.7c0,0-4.1-2.1-4.3-2.2c-2.7-1.5-3.5-2.8-3.5-2.8
				c-1.2-2.2-0.7-4.8,1.8-5.8c12.7-5.2,35-5.2,43.9-2.6c4.5,1.3,7.4,3.6,5.1,6.9c-2.3,3.3-10.1,12-13.8,14.9
				c-0.3,0.3-0.7,0.5-1.3,0.5C79.9,59.1,79.6,59.1,79.3,59 M34.7,36c-3.4,1.4-4.2,5-2.5,8.2c0,0,1,1.9,4.9,3.9
				c0.3,0.1,6.1,3.1,6.1,3.1c7.7,3.4,20.2,8.4,38.3,12.3c1.6,0.3,2.3,0,2.9-0.5c5.1-4.1,16.2-16.3,19.4-21c3.2-4.6-1-7.9-7.2-9.7
				C91.3,30.9,83,30,73.7,30C60.4,30,45.2,31.8,34.7,36"/>
		</defs>
		<clipPath id="SVGID_2_">
			<use xlink:href="#SVGID_1_"  style="overflow:visible;"/>
		</clipPath>
		
			<linearGradient id="SVGID_3_" gradientUnits="userSpaceOnUse" x1="-786.0051" y1="3473.4905" x2="-785.0051" y2="3473.4905" gradientTransform="matrix(73.5128 0 0 -73.5128 57812.8047 255393.0781)">
			<stop  offset="0" style="stop-color:#D63127"/>
			<stop  offset="1" style="stop-color:#9E1C20"/>
		</linearGradient>
		<rect x="30.5" y="30" class="st1" width="76.4" height="33.8"/>
	</g>
</g>
</svg>
