<svg xmlns="http://www.w3.org/2000/svg" viewBox="0 0 35 35"><path d="M34.1 16.8c-.4-6.2-3.4-10.9-8.8-14-2-1.1-4.2-1.7-6.5-1.9-.1 0-.2 0-.2-.1h-1.9c-.8.2-1.4.2-2.1.3C9.4 2.1 5.4 5 2.9 9.7c-1.1 2-1.8 4.2-1.9 6.6 0 .1 0 .2-.1.3v1.9c.1.6.1 1.3.3 1.9 1 5.3 3.9 9.2 8.6 11.8 2.6 1.4 5.5 2.1 8.5 1.9 6.2-.4 10.9-3.3 14-8.8 1.3-2.6 2-5.5 1.8-8.5M12.6 26h-4V13.8h4V26zm-2-13.8c-1.3 0-2.2-.9-2.2-2.1 0-1.2 1-2.1 2.3-2.1 1.3 0 2.2.9 2.2 2.1 0 1.2-1 2.1-2.3 2.1M27.2 26h-4v-6.4c0-.5-.1-1-.2-1.5-.4-1.6-2.3-1.7-3.2-.9-.5.4-.8 1-.8 1.6v7.1h-4V13.8h4v1.6c.3-.4.6-.7.9-1 2.4-2 6.1-.8 7 2.2.2.8.3 1.6.3 2.4v6.7c.1.1 0 .2 0 .3" fill="#f1f0f0"/></svg>