<svg xmlns="http://www.w3.org/2000/svg" xmlns:xlink="http://www.w3.org/1999/xlink" viewBox="0 0 108.5 24.6"><path d="M50.9 8.4c0 .8.1 1.7 0 2.6-.2 1.4-1 2.2-2.4 2.3-.7.1-1.4 0-2.1-.3-1-.5-1.5-1.3-1.5-2.4v-5c0-.2.1-.2.2-.2h.8c.2 0 .3.1.3.3V11c.2.9.9 1.4 1.9 1.3.9-.1 1.4-.7 1.5-1.6v-5c0-.2 0-.2.2-.2h.8c.2 0 .2.1.2.2.1.8.1 1.7.1 2.7m2.1.9V5.7c0-.2.1-.3.3-.3h3.9c.2 0 .3.1.3.3 0 .3.1.6 0 .8-.2.2-.5 0-.8 0h-2.1c-.2 0-.3.1-.2.3v1.6c0 .2.1.2.2.2h2.2c.2 0 .2 0 .2.2 0 .8 0 .8-.8.8h-1.7c-.2 0-.3 0-.3.2v2c0 .2.1.3.3.3h2.6c.2 0 .3.1.3.3 0 .3.1.6-.1.8-.2.2-.5 0-.8 0h-3.3c-.3 0-.3 0-.3-.3.1-1.2.1-2.4.1-3.6m41-2.5c-.4-.2-.8-.3-1.2-.3-.4 0-.8-.1-1.2 0-.4.1-.6.4-.7.8-.1.4.1.8.5 1 .5.3 1 .5 1.5.7.6.3 1.2.7 1.4 1.4.4 1.5-.5 2.8-2.1 2.9-.8.1-1.7 0-2.5-.3-.2-.1-.3-.2-.2-.3v-.9c.3 0 .5.2.8.3.6.2 1.2.3 1.8.1.4-.1.7-.4.8-.8.1-.5-.1-.9-.5-1.1-.5-.3-1-.5-1.5-.7-.6-.3-1.1-.7-1.3-1.3-.5-1.5.4-2.7 2-2.9.7-.1 1.4 0 2.1.2.2 0 .3.1.3.3v.9m5.1 5c.8.3 1.5.5 2.3.5.6 0 1-.3 1.1-.7.2-.5 0-.9-.4-1.2-.3-.2-.7-.4-1.1-.6-.2-.1-.4-.2-.5-.3-1-.5-1.4-1.4-1.2-2.5.2-.9 1-1.5 2-1.6.7-.1 1.4 0 2.1.2.1 0 .2.1.2.3 0 .3.1.7 0 .8-.2.2-.5-.1-.8-.2-.5-.1-1-.2-1.6 0-.4.1-.7.3-.7.8-.1.4.1.8.5 1 .4.2.9.4 1.3.6.2.1.3.2.5.2.9.5 1.3 1.3 1.2 2.3-.1.9-.8 1.6-1.8 1.8-1 .2-1.9.1-2.9-.2-.1 0-.2-.1-.2-.3v-.9M67.7 9.9V6.8c0-.2 0-.3-.3-.3h-1.7c-.2 0-.2 0-.2-.2v-.7c0-.2.1-.2.2-.2h5.2c.2 0 .2 0 .2.2v.5c0 .3-.1.3-.3.3h-1.6c-.2.1-.2.2-.2.5V13c0 .2-.1.3-.3.3H68c-.2 0-.3-.1-.3-.3V9.9zM96 9.3V5.7c0-.2.1-.3.3-.3h.8c.1 0 .2 0 .2.2V13c0 .2 0 .2-.2.2h-.9c-.2 0-.2-.1-.2-.2V9.3m2.9-6.2c-.5.5-1 1.1-1.5 1.6-.2.2-1 .2-1.1 0-.1-.1.7-1.1.9-1.5.1-.1.2-.2.3-.2.5.1.9.1 1.4.1M78.8 8.7c-.1-.9-.4-1.7-1-2.4-.9-.9-2-1.1-3.2-.9-1.3.2-2.1.9-2.6 2.2-.4 1.1-.4 2.2-.1 3.3.4 1.4 1.3 2.3 2.7 2.5 1.5.2 2.8-.2 3.6-1.5.5-.7.6-1.6.6-2.5v-.7m-1.7 2.4c-.4.8-1 1.2-1.9 1.2-.9 0-1.5-.4-1.8-1.2-.4-1.1-.4-2.3 0-3.4.3-.9 1-1.3 2-1.2.8 0 1.5.5 1.8 1.3.2.5.3 1.1.3 1.5-.1.6-.1 1.2-.4 1.8m-12 1.9v-.6c0-.1 0-.2-.2-.2-.3 0-.5-.1-.7-.3-.5-.7-.9-1.4-1.4-2.1-.1-.1 0-.2.1-.2.2-.1.5-.2.7-.4.7-.6 1-1.4.7-2.4-.2-.8-.9-1.4-1.8-1.5-1-.1-2 0-3.1 0-.2 0-.2.1-.2.3v7.3c0 .2 0 .3.3.3h.8c.2 0 .3-.1.3-.3v-2.6c0-.5 0-.5.5-.5.3 0 .4 0 .6.3.5.8 1 1.5 1.5 2.3.4.6 1 .9 1.7.8.1.1.3.1.2-.2m-3.2-4.1h-1.2c-.2 0-.2-.1-.2-.2v-2c0-.2 0-.2.2-.2h1.2c.7 0 1.1.5 1.1 1.2s-.4 1.2-1.1 1.2m26.7 4c-.8-2.3-1.6-4.5-2.4-6.8-.2-.7-.2-.7-1-.7h-.4c-.3 0-.4.1-.5.3-.5 1.3-1 2.6-1.4 3.9l-1.2 3.3c-.1.2-.1.2.2.2h.9c.2 0 .2-.1.3-.2.2-.5.3-1 .5-1.4 0-.1.1-.2.3-.2h2.8c.2 0 .2.1.3.2.1.5.3.9.5 1.4 0 .2.1.2.3.2h.9c0 .2 0 .2-.1-.2m-2.5-2.5H84c-.1 0-.2 0-.1-.1.4-1.2.8-2.4 1.2-3.5.4 1.2.8 2.3 1.1 3.5.1 0 .1.1-.1.1M43.5 7.6c-.1-1.2-.9-2.1-2.1-2.1-.9-.1-1.8 0-2.7 0-.4 0-.4 0-.4.4v7.2c0 .2.1.3.3.3h.8c.2 0 .3 0 .3-.3v-1.9c0-.2-.1-.6 0-.7.1-.2.5 0 .7-.1.4 0 .9 0 1.3-.1 1.2-.4 1.8-1.3 1.8-2.7m-2.8 1.7h-.9c-.2 0-.2-.1-.2-.2V6.7c0-.1 0-.2.1-.2H41c.7.1 1.1.6 1.1 1.4 0 .9-.5 1.4-1.4 1.4m-2.4 12.2V16h.4v5.4h-.4zm7.7 0h-.4l-3.2-4.8v4.8H42V16h.4l3.2 4.8V16h.4v5.5zm6.6-5.5h.4l-2 5.4h-.3l-2-5.4h.3l1.4 3.7c.2.6.3 1 .4 1.3 0-.2.1-.5.3-.9l1.5-4.1zm6 5.5h-3V16h3v.4H56v2.1h2.5v.4H56v2.3h2.6v.3zm6-1.4c0 .5-.2.8-.5 1.1-.3.3-.8.4-1.3.4-.7 0-1.2-.1-1.5-.2V21c.4.2.9.2 1.5.2.4 0 .8-.1 1.1-.3.3-.2.4-.5.4-.8 0-.2 0-.4-.1-.5-.1-.1-.2-.3-.4-.4s-.5-.2-.9-.4c-.6-.2-.9-.4-1.2-.6s-.3-.5-.3-.9.2-.7.5-1c.3-.3.7-.4 1.2-.4s1 .1 1.4.3l-.1.3c-.5-.2-.9-.3-1.3-.3s-.7.1-1 .3c-.2.2-.4.4-.4.8 0 .2 0 .4.1.5.1.1.2.2.4.3.2.1.5.2.9.4.4.1.7.3 1 .4.2.1.4.3.5.5v.7zm4.4 1.4h-.4v-5.1h-1.8V16h3.9v.4H69v5.1zm6.8 0l-2-5v5h-.4V16h.6l1.9 4.8 1.9-4.8h.6v5.4H78v-5l-2 5h-.2zm9 0h-3V16h3v.4h-2.6v2.1h2.5v.4h-2.5v2.3h2.6v.3zm7.1 0h-.4l-3.2-4.8v4.8h-.4V16h.4l3.2 4.8V16h.4v5.5zm4.7 0h-.4v-5.1h-1.8V16h3.9v.4h-1.8v5.1zm7.5-1.4c0 .5-.2.8-.5 1.1-.3.3-.8.4-1.3.4-.7 0-1.2-.1-1.5-.2V21c.4.2.9.2 1.5.2.4 0 .8-.1 1.1-.3.3-.2.4-.5.4-.8 0-.2 0-.4-.1-.5s-.2-.3-.4-.4-.5-.2-.9-.4c-.6-.2-.9-.4-1.2-.6s-.3-.5-.3-.9.2-.7.5-1c.3-.3.7-.4 1.2-.4s1 .1 1.4.3l-.1.3c-.5-.2-.9-.3-1.3-.3s-.7.1-1 .3c-.2.2-.4.4-.4.8 0 .2 0 .4.1.5.1.1.2.2.4.3.2.1.5.2.9.4.4.1.7.3 1 .4.2.1.4.3.5.5-.1.2 0 .4 0 .7z" fill="#232323"/><defs><path id="a" d="M22.6 17.9c-4.9-1.1-8.2-2.4-10.3-3.3l-1.6-.8c-1-.6-1.3-1.1-1.3-1.1-.5-.8-.3-1.8.7-2.2 4.8-1.9 13.2-1.9 16.6-1 1.7.5 2.8 1.3 1.9 2.6-.9 1.3-3.8 4.5-5.2 5.6-.1.1-.3.2-.5.2h-.3M5.7 9.2c-1.3.5-1.6 1.9-.9 3.1 0 0 .4.7 1.8 1.5.1.1 2.3 1.2 2.3 1.2 2.9 1.3 7.7 3.2 14.5 4.7.6.1.9 0 1.1-.2 1.9-1.5 6.1-6.2 7.3-7.9 1.2-1.8-.4-3-2.7-3.7-2-.6-5.1-.9-8.6-.9-5.1-.1-10.8.6-14.8 2.2"/></defs><clipPath id="b"><use xlink:href="#a" overflow="visible"/></clipPath><linearGradient id="c" gradientUnits="userSpaceOnUse" x1="-771.012" y1="3634.731" x2="-770.702" y2="3634.731" gradientTransform="matrix(89.7583 0 0 -89.7583 69209.203 326260.75)"><stop offset="0" stop-color="#d63127"/><stop offset="1" stop-color="#9e1c20"/></linearGradient><path clip-path="url(#b)" fill="url(#c)" d="M4.1 6.9H33v12.8H4.1z"/></svg>