<svg xmlns="http://www.w3.org/2000/svg" xmlns:xlink="http://www.w3.org/1999/xlink" viewBox="0 0 327 93.7"><path d="M154.3 33.8c-.1 2 .2 4.4-.1 6.9-.5 3.6-2.7 5.8-6.3 6.2-1.9.2-3.8.1-5.6-.7-2.7-1.3-3.9-3.5-3.9-6.4-.1-4.4 0-8.8 0-13.2 0-.5.2-.6.6-.6.7 0 1.5.1 2.2 0 .6-.1.7.2.7.7v12.4c0 .5 0 1 .1 1.5.5 2.5 2.3 3.6 5.1 3.4 2.3-.2 3.8-1.8 3.9-4.2.1-3.2 0-6.5 0-9.8v-3.4c0-.4.1-.6.6-.6h2.1c.5 0 .6.2.6.6v7.2m5.4 2.6v-9.6c0-.6.2-.8.8-.7h10.3c.6 0 .8.1.8.8-.1.7.3 1.6-.1 2-.4.4-1.3.1-2 .1h-5.6c-.5 0-.7.2-.7.7v4.2c0 .5.2.6.6.6h5.8c.6 0 .7.2.7.7 0 2 0 2-2 2h-4.4c-.5 0-.7.1-.7.7v5.4c0 .6.2.7.7.7h6.8c.6 0 .9.2.8.8-.1.7.3 1.6-.1 2-.4.4-1.3.1-2 .1h-8.8c-.7 0-.9-.1-.9-.9.1-3.3 0-6.4 0-9.6m108.4-6.7c-1.1-.4-2.2-.8-3.3-.9-1-.1-2.1-.2-3.1.1-1 .3-1.7.9-1.9 2-.2 1.1.2 2 1.2 2.5 1.3.7 2.7 1.3 4.1 1.9 1.7.8 3.2 1.9 3.7 3.8 1 3.9-1.3 7.3-5.4 7.7-2.2.2-4.4 0-6.6-.8-.5-.2-.7-.4-.6-.9.1-.8 0-1.5.1-2.3.7 0 1.4.5 2.1.7 1.6.5 3.2.7 4.8.3 1.2-.3 2-1 2.2-2.2.2-1.3-.3-2.3-1.4-2.9-1.2-.7-2.6-1.2-3.9-1.8-1.6-.8-2.9-1.8-3.5-3.5-1.2-3.9 1-7.2 5.2-7.6 1.9-.2 3.7.1 5.6.6.5.1.6.3.6.8 0 .9.1 1.6.1 2.5m13.6 13.1c2 .9 3.9 1.4 6 1.3 1.5-.1 2.6-.8 3-2 .4-1.3 0-2.5-1.1-3.3-.9-.6-2-1-3-1.5-.5-.2-1-.4-1.4-.7-2.7-1.4-3.8-3.7-3.2-6.7.5-2.4 2.5-3.9 5.4-4.2 1.9-.2 3.7.1 5.6.6.4.1.6.2.6.7 0 .8.3 1.8-.1 2.2-.4.5-1.3-.3-2-.4-1.4-.3-2.8-.5-4.2-.1-1 .3-1.7.9-1.9 2-.2 1.1.2 2.1 1.2 2.6 1.2.6 2.4 1.1 3.6 1.7.4.2.9.4 1.3.6 2.5 1.4 3.5 3.4 3.1 6.2-.3 2.4-2.1 4.2-4.7 4.8-2.6.5-5.1.2-7.6-.6-.3-.1-.5-.3-.5-.7-.1-.7-.1-1.6-.1-2.5m-83.2-5v-8.1c0-.6-.1-.8-.8-.8-1.5.1-2.9 0-4.4 0-.4 0-.5-.1-.5-.5v-1.8c0-.5.2-.5.5-.5h13.8c.5 0 .7.1.6.6 0 .5-.1 1 0 1.4.1.8-.2.9-.9.8h-4.1c-.8 0-.9.2-.9.9v16.1c0 .7-.2.9-.8.8-.6-.1-1.2-.1-1.8 0-.6 0-.8-.1-.8-.8.1-2.6.1-5.4.1-8.1zm75-1.4v-9.6c0-.6.1-.8.7-.7.7.1 1.5 0 2.2 0 .4 0 .6.1.6.5v19.6c0 .4-.1.6-.5.5h-2.4c-.5 0-.6-.2-.6-.6v-9.7m7.5-16.6c-1.3 1.4-2.7 2.9-4.1 4.3-.4.4-2.7.4-2.9 0-.2-.3 1.8-3 2.4-3.9.2-.3.4-.5.8-.5 1.3.1 2.6.1 3.8.1m-53.1 15c-.3-2.4-.9-4.6-2.6-6.3-2.3-2.4-5.3-3-8.5-2.5-3.4.5-5.7 2.5-6.9 5.7-1.1 2.9-1.1 5.8-.3 8.7 1 3.6 3.3 6 7.1 6.5 4 .6 7.5-.5 9.6-4.1 1.2-2 1.6-4.2 1.6-6.6.1-.4.1-.9 0-1.4m-4.4 6.1c-1 2.1-2.6 3.2-4.9 3.2-2.3 0-4-1.1-4.9-3.2-1.1-2.9-1.1-6 0-8.9.9-2.3 2.7-3.3 5.2-3.3 2.2.1 3.9 1.4 4.7 3.5.5 1.4.7 2.8.7 4 0 1.8-.2 3.3-.8 4.7m-31.7 5.3c-.1-.5 0-1.1 0-1.6 0-.4-.1-.5-.5-.4-.8.1-1.4-.2-1.8-.9-1.2-1.8-2.5-3.6-3.7-5.4-.2-.4-.1-.5.2-.6.6-.2 1.2-.5 1.7-.9 1.8-1.5 2.5-3.8 1.8-6.2-.6-2.2-2.4-3.7-4.9-3.9-2.7-.2-5.4 0-8.1-.1-.6 0-.5.4-.5.7v19.3c0 .5.1.7.7.7h2.1c.6 0 .7-.1.7-.7v-6.8c0-1.4 0-1.3 1.4-1.4.7 0 1.1.1 1.5.8 1.3 2.1 2.6 4.1 4 6.1 1.1 1.7 2.6 2.4 4.6 2.2.5-.2.8-.3.8-.9m-8.5-10.9c-1.1.1-2.2 0-3.2 0-.5 0-.5-.2-.5-.6v-5.4c0-.4.1-.6.6-.6h3.2c1.9.1 2.9 1.3 2.9 3.2-.1 2.1-1.1 3.3-3 3.4m70.4 10.5c-2.1-6-4.3-12-6.4-17.9-.6-1.8-.6-1.8-2.6-1.8-.4 0-.8.1-1.2 0-.7-.1-1 .2-1.2.8-1.3 3.5-2.6 6.9-3.8 10.4-1.1 2.9-2.2 5.9-3.3 8.8-.2.5-.2.7.4.6h2.4c.4 0 .6-.1.7-.5.4-1.3.9-2.5 1.3-3.8.1-.4.3-.5.7-.5h7.4c.4 0 .7.1.8.6.4 1.2.8 2.5 1.2 3.7.1.4.3.6.8.6h2.3c.9-.1.9-.1.5-1m-6.6-6.7h-5.5c-.2 0-.6.1-.4-.4 1.1-3.1 2.1-6.2 3.2-9.3h.1c1 3 2 6.1 3 9.1.2.4.2.6-.4.6m-112.6-7.3c-.2-3-2.4-5.4-5.4-5.6-2.4-.2-4.8-.1-7.2-.1-1 0-1 0-1 1.1v19c0 .6.2.7.7.7.7 0 1.4-.1 2.1 0 .6 0 .8-.1.8-.7v-5c0-.7-.2-1.5.1-1.9.4-.5 1.3-.1 2-.1 1.1 0 2.3.1 3.4-.2 3-1 4.7-3.6 4.5-7.2m-7.3 4.5h-2.3c-.5 0-.6-.2-.6-.6v-6.4c0-.2 0-.5.3-.5 1.2 0 2.3-.1 3.5.1 1.9.3 2.9 1.7 2.8 3.7 0 2.4-1.3 3.7-3.7 3.7m-6.4 32.2V54.1h1v14.4h-1zm20.4 0h-1l-8.5-12.8h-.1c.1 1.5.1 2.7.1 3.4v9.3h-1V54.1h1l8.5 12.8h.1c-.1-1.2-.1-2.3-.1-3.4v-9.4h1v14.4zm17.4-14.4h1.1l-5.4 14.4h-.9L148 54.1h1.1l3.6 9.8c.6 1.5.9 2.6 1.1 3.3.1-.5.4-1.3.8-2.3l4-10.8zm15.8 14.4h-7.9V54.1h7.9v.9h-6.9v5.4h6.5v.9h-6.5v6.2h6.9v1zm16-3.8c0 1.2-.4 2.2-1.3 2.9-.9.7-2.1 1.1-3.5 1.1-1.8 0-3.1-.2-4-.6v-1c1 .4 2.4.7 4 .7 1.2 0 2.1-.3 2.8-.8.7-.5 1-1.3 1-2.1 0-.5-.1-1-.3-1.4-.2-.4-.6-.7-1.1-1-.5-.3-1.3-.6-2.3-1-1.5-.5-2.5-1.1-3-1.6s-.8-1.4-.8-2.3c0-1.1.4-2 1.3-2.6s1.9-1 3.3-1 2.6.3 3.8.8l-.4.9c-1.2-.5-2.3-.7-3.4-.7s-1.9.2-2.5.7c-.6.5-.9 1.2-.9 2 0 .5.1 1 .3 1.3.2.3.5.6 1 .9.4.3 1.2.6 2.3 1 1.1.4 2 .8 2.5 1.1.6.4 1 .8 1.2 1.2-.1.3 0 .9 0 1.5zm11.7 3.8h-1V55h-4.7v-.9h10.4v.9h-4.7v13.5zm18 0l-5.4-13.3h-.1c.1.8.1 1.6.1 2.5v10.8h-1V54.1h1.6l5.1 12.7h.1l5.1-12.7h1.5v14.4h-1v-11c0-.8 0-1.5.1-2.4h-.1l-5.4 13.3h-.6zm23.8 0H236V54.1h7.9v.9H237v5.4h6.5v.9H237v6.2h6.9v1zm18.5 0h-1l-8.5-12.8h-.1c.1 1.5.1 2.7.1 3.4v9.3h-1V54.1h1l8.5 12.8h.1c-.1-1.2-.1-2.3-.1-3.4v-9.4h1v14.4zm12.7 0h-1V55h-4.7v-.9h10.4v.9h-4.7v13.5zm19.6-3.8c0 1.2-.4 2.2-1.3 2.9-.9.7-2.1 1.1-3.5 1.1-1.8 0-3.1-.2-4-.6v-1c1 .4 2.4.7 4 .7 1.2 0 2.1-.3 2.8-.8.7-.5 1-1.3 1-2.1 0-.5-.1-1-.3-1.4-.2-.4-.6-.7-1.1-1-.5-.3-1.3-.6-2.3-1-1.5-.5-2.5-1.1-3-1.6s-.8-1.4-.8-2.3c0-1.1.4-2 1.3-2.6.8-.7 1.9-1 3.3-1s2.6.3 3.8.8l-.4.9c-1.2-.5-2.3-.7-3.4-.7s-1.9.2-2.5.7c-.6.5-.9 1.2-.9 2 0 .5.1 1 .3 1.3.2.3.5.6 1 .9.4.3 1.2.6 2.3 1 1.1.4 2 .8 2.5 1.1.6.4 1 .8 1.2 1.2s0 .9 0 1.5z" fill="#ebebeb"/><defs><path id="a" d="M79.3 59c-12.8-2.8-21.8-6.3-27.2-8.7 0 0-4.1-2.1-4.3-2.2-2.7-1.5-3.5-2.8-3.5-2.8-1.2-2.2-.7-4.8 1.8-5.8 12.7-5.2 35-5.2 43.9-2.6 4.5 1.3 7.4 3.6 5.1 6.9-2.3 3.3-10.1 12-13.8 14.9-.3.3-.7.5-1.3.5-.1-.1-.4-.1-.7-.2M34.7 36c-3.4 1.4-4.2 5-2.5 8.2 0 0 1 1.9 4.9 3.9.3.1 6.1 3.1 6.1 3.1 7.7 3.4 20.2 8.4 38.3 12.3 1.6.3 2.3 0 2.9-.5 5.1-4.1 16.2-16.3 19.4-21 3.2-4.6-1-7.9-7.2-9.7C91.3 30.9 83 30 73.7 30c-13.3 0-28.5 1.8-39 6"/></defs><clipPath id="b"><use xlink:href="#a" overflow="visible"/></clipPath><linearGradient id="c" gradientUnits="userSpaceOnUse" x1="-786.005" y1="3473.49" x2="-785.005" y2="3473.49" gradientTransform="matrix(73.5128 0 0 -73.5128 57812.805 255393.078)"><stop offset="0" stop-color="#d63127"/><stop offset="1" stop-color="#9e1c20"/></linearGradient><path clip-path="url(#b)" fill="url(#c)" d="M30.5 30h76.4v33.8H30.5z"/></svg>